<svg xmlns="http://www.w3.org/2000/svg" width="242" height="56" viewBox="0 0 242 56" fill="none">
  <g clip-path="url(#clip0_3358_7527)">
    <path d="M0 46.23H3.15385C3.15385 46.23 7.57692 1.30693 49.5769 2.96078C87.3077 4.42231 86.1154 46.6146 86.1154 46.6146H89.1538C89.1538 46.6146 90.6923 0.0761616 48.5 -0.000761471C3.30769 -0.116146 0 46.23 0 46.23Z" fill="url(#paint0_linear_3358_7527)"/>
    <path d="M6.42285 46.3462H11.4613C11.4613 46.3462 15.4613 11.3462 45.9998 11.5385C74.0767 11.7308 76.0767 46.3078 76.0767 46.3078H83.1536C83.1536 46.3078 81.4998 6.69238 47.3459 6.69238C9.23054 6.69238 6.42285 46.3462 6.42285 46.3462Z" fill="url(#paint1_linear_3358_7527)"/>
    <path d="M19.7146 45.1644C22.1146 45.1644 24.0601 44.4348 24.0601 43.5348C24.0601 42.6349 22.1146 41.9053 19.7146 41.9053C17.3147 41.9053 15.3691 42.6349 15.3691 43.5348C15.3691 44.4348 17.3147 45.1644 19.7146 45.1644Z" fill="white"/>
    <path d="M19.4678 31.8813C19.0728 32.6714 20.5048 34.2022 22.6776 35.2392C24.8503 36.2762 26.9243 36.4737 27.3194 35.6836C27.7144 34.8935 26.2824 33.3627 24.1096 32.3257C21.9369 31.2393 19.9123 31.0418 19.4678 31.8813Z" fill="white"/>
    <path d="M34.1297 28.4404C34.7661 27.804 33.9063 25.9124 32.2093 24.2154C30.5123 22.5184 28.6207 21.6586 27.9843 22.295C27.3479 22.9314 28.2077 24.823 29.9047 26.52C31.6017 28.217 33.4933 29.0768 34.1297 28.4404Z" fill="white"/>
    <path d="M40.4048 16.2269C39.5159 16.4244 39.2197 18.449 39.7135 20.8193C40.2073 23.1896 41.343 24.9179 42.1825 24.7204C43.0714 24.5229 43.3676 22.4983 42.8738 20.128C42.38 17.8071 41.2937 16.0294 40.4048 16.2269Z" fill="white"/>
    <path d="M51.4665 16.178C50.5777 15.9311 49.3431 17.5607 48.6518 19.8816C47.9605 22.2025 48.1086 24.2765 48.9481 24.5234C49.837 24.7703 51.0715 23.1407 51.7628 20.8198C52.5035 18.4989 52.3554 16.4249 51.4665 16.178Z" fill="white"/>
    <path d="M69.2681 45.9516C71.6654 45.8404 73.575 45.0215 73.5333 44.1225C73.4916 43.2235 71.5144 42.5849 69.1171 42.6961C66.7198 42.8073 64.8102 43.6262 64.8519 44.5252C64.8936 45.4242 66.8708 46.0628 69.2681 45.9516Z" fill="white"/>
    <path d="M67.1283 35.8075C69.2618 34.7083 70.6573 33.1687 70.2451 32.3686C69.8329 31.5685 67.7692 31.811 65.6356 32.9102C63.5021 34.0093 62.1066 35.549 62.5188 36.3491C62.931 37.1492 64.9947 36.9067 67.1283 35.8075Z" fill="white"/>
    <path d="M60.7599 26.4344C62.3014 24.5948 62.9918 22.635 62.302 22.0569C61.6121 21.4788 59.8033 22.5015 58.2618 24.3411C56.7203 26.1806 56.0299 28.1405 56.7198 28.7185C57.4096 29.2966 59.2184 28.2739 60.7599 26.4344Z" fill="white"/>
    <path d="M37.8035 38.6282C38.1035 38.1086 37.1405 36.991 35.6526 36.1319C34.1646 35.2728 32.7153 34.9976 32.4153 35.5172C32.1153 36.0368 33.0783 37.1544 34.5662 38.0135C36.0541 38.8726 37.5035 39.1478 37.8035 38.6282Z" fill="white"/>
    <path d="M39.3677 29.9061C39.9109 29.6098 40.9972 30.6468 41.7873 32.1776C42.5774 33.7084 42.7749 35.1898 42.2318 35.4367C41.6886 35.733 40.6022 34.696 39.8121 33.1652C39.0714 31.6344 38.8245 30.153 39.3677 29.9061Z" fill="white"/>
    <path d="M30.1337 43.4358C30.2819 42.8432 31.7139 42.6457 33.3928 42.9914C35.0718 43.337 36.3557 44.1271 36.2075 44.7197C36.0594 45.3123 34.6274 45.5098 32.9484 45.1641C31.2695 44.7691 29.9856 44.0284 30.1337 43.4358Z" fill="white"/>
    <path d="M55.8 37.6142C57.2879 36.7551 58.2509 35.6375 57.9509 35.1179C57.6509 34.5983 56.2016 34.8735 54.7136 35.7326C53.2257 36.5917 52.2627 37.7093 52.5627 38.2289C52.8627 38.7485 54.3121 38.4733 55.8 37.6142Z" fill="white"/>
    <path d="M50.2808 29.4117C49.7376 29.1648 48.75 30.3005 48.108 31.8807C47.4661 33.4609 47.3673 34.9423 47.9599 35.1892C48.5031 35.4361 49.4907 34.3004 50.1326 32.7202C50.7252 31.0906 50.824 29.6092 50.2808 29.4117Z" fill="white"/>
    <path d="M60.6509 42.3987C60.5027 41.8061 59.0707 41.6086 57.3918 41.9543C55.7128 42.2999 54.4289 43.09 54.5771 43.6826C54.7252 44.2752 56.1572 44.4727 57.8362 44.127C59.5151 43.732 60.799 42.9913 60.6509 42.3987Z" fill="white"/>
    <path d="M114.846 22.8467C118.077 22.8467 120.769 24.0005 122.846 26.3467C124.923 28.6544 125.961 31.539 125.961 34.9621C125.961 38.3467 124.923 41.2313 122.846 43.539C120.769 45.8851 118.077 47.039 114.846 47.039C111.308 47.039 108.577 45.8082 106.654 43.3082V55.7697H101.615V23.4621H106.654V26.5774C108.577 24.0774 111.308 22.8467 114.846 22.8467ZM113.5 27.2698C112.038 27.2698 110.692 27.6544 109.461 28.4236C108.231 29.1928 107.308 30.1928 106.654 31.3851V38.5005C107.308 39.6928 108.269 40.6544 109.5 41.4236C110.731 42.1928 112.077 42.5774 113.5 42.5774C115.615 42.5774 117.384 41.8467 118.769 40.3851C120.154 38.8851 120.884 37.0774 120.884 34.9621C120.884 32.8082 120.192 31.0005 118.769 29.539C117.346 28.039 115.615 27.2698 113.5 27.2698Z" fill="white"/>
    <path d="M136.999 46.4234H131.961V23.4619H136.999V46.4234Z" fill="white"/>
    <path d="M147 40.1541V27.8849H142.077V23.4618H147V16.7695H152.039V23.4618H159.269V27.9234H152.039V38.7311C152.039 40.0003 152.346 40.9618 152.923 41.5388C153.5 42.1157 154.423 42.4234 155.654 42.4234C156.885 42.4234 158.039 42.1541 159.116 41.5772V45.9234C158.039 46.6541 156.308 47.0388 154 47.0388C151.808 47.0388 150.116 46.4618 148.846 45.2695C147.654 44.0772 147 42.3465 147 40.1541Z" fill="white"/>
    <path d="M186.577 42.5005C187.077 42.5005 187.539 42.3851 187.923 42.1544V46.0005C187.231 46.5005 186.269 46.7313 184.962 46.7313C182.346 46.7313 180.731 45.6544 180.154 43.4621C178.077 45.8467 175.231 47.0005 171.693 47.0005C169.231 47.0005 167.154 46.3082 165.5 44.9236C163.885 43.5774 163.077 41.6928 163.077 39.2698C163.077 36.8467 163.962 34.9621 165.731 33.6544C167.462 32.3082 169.654 31.6544 172.269 31.6544C175.039 31.6544 177.5 32.2313 179.616 33.4236V32.1544C179.616 28.8082 177.385 27.1544 172.885 27.1544C170.269 27.1544 167.846 27.8467 165.654 29.2313V24.8082C167.923 23.5005 170.731 22.8467 174.039 22.8467C177.269 22.8467 179.846 23.6159 181.769 25.1544C183.693 26.6928 184.654 28.8467 184.654 31.6159V40.1928C184.654 40.9236 184.846 41.4621 185.193 41.8851C185.539 42.2698 186 42.5005 186.577 42.5005ZM179.654 39.9236V37.1159C177.731 36.039 175.693 35.4621 173.539 35.4621C171.846 35.4621 170.539 35.7698 169.577 36.3851C168.616 37.0005 168.154 37.8851 168.154 39.0005C168.154 40.1928 168.616 41.0774 169.5 41.7313C170.385 42.3467 171.616 42.6544 173.116 42.6544C174.346 42.6544 175.577 42.3851 176.769 41.8851C177.923 41.3851 178.923 40.7313 179.654 39.9236Z" fill="white"/>
    <path d="M194.769 56.0004C192.885 56.0004 191.461 55.7696 190.615 55.2696V50.8081C191.615 51.3081 192.731 51.5388 193.923 51.5388C195.192 51.5388 196.269 51.0773 197.192 50.1542C198.077 49.2311 198.961 47.6927 199.885 45.5773L189.808 23.4619H195.423L202.346 39.6542L209.038 23.4619H214.5L203.5 48.885C201.461 53.6158 198.538 56.0004 194.769 56.0004Z" fill="white"/>
    <path d="M240.23 42.5005C240.73 42.5005 241.192 42.3851 241.577 42.1544V46.0005C240.884 46.5005 239.923 46.7313 238.615 46.7313C236 46.7313 234.384 45.6544 233.807 43.4621C231.73 45.8467 228.884 47.0005 225.346 47.0005C222.884 47.0005 220.807 46.3082 219.154 44.9236C217.538 43.5774 216.73 41.6928 216.73 39.2698C216.73 36.8467 217.615 34.9621 219.384 33.6544C221.115 32.3082 223.307 31.6544 225.923 31.6544C228.692 31.6544 231.154 32.2313 233.269 33.4236V32.1544C233.269 28.8082 231.038 27.1544 226.538 27.1544C223.923 27.1544 221.5 27.8467 219.307 29.2313V24.8082C221.577 23.5005 224.384 22.8467 227.692 22.8467C230.923 22.8467 233.5 23.6159 235.423 25.1544C237.346 26.6928 238.307 28.8467 238.307 31.6159V40.1928C238.307 40.9236 238.5 41.4621 238.846 41.8851C239.192 42.2698 239.654 42.5005 240.23 42.5005ZM233.307 39.9236V37.1159C231.384 36.039 229.346 35.4621 227.192 35.4621C225.5 35.4621 224.192 35.7698 223.23 36.3851C222.269 37.0005 221.807 37.8851 221.807 39.0005C221.807 40.1928 222.269 41.0774 223.154 41.7313C224.038 42.3467 225.269 42.6544 226.769 42.6544C228 42.6544 229.23 42.3851 230.423 41.8851C231.577 41.3851 232.538 40.7313 233.307 39.9236Z" fill="white"/>
    <path d="M134.462 19.3459C133.539 19.3459 132.808 19.0382 132.193 18.4229C131.577 17.8075 131.27 17.0767 131.27 16.1536C131.27 15.2305 131.577 14.4998 132.193 13.8459C132.808 13.2305 133.539 12.9229 134.462 12.9229C135.346 12.9229 136.077 13.2305 136.693 13.8459C137.308 14.4613 137.616 15.2305 137.616 16.1536C137.616 17.0767 137.308 17.8075 136.693 18.4229C136.077 19.0382 135.346 19.3459 134.462 19.3459Z" fill="url(#paint2_linear_3358_7527)"/>
    <path d="M139.615 14.4227C139.615 11.5565 137.277 9.23047 134.415 9.23047C131.553 9.23047 129.23 11.5565 129.23 14.4227C129.23 17.289 131.553 19.615 134.415 19.615C137.277 19.63 139.615 17.304 139.615 14.4227Z" fill="url(#paint3_linear_3358_7527)"/>
  </g>
  <defs>
    <linearGradient id="paint0_linear_3358_7527" x1="81.8726" y1="35.717" x2="0.600475" y2="39.0689" gradientUnits="userSpaceOnUse">
      <stop stop-color="#624BF5"/>
      <stop offset="0.46875" stop-color="#FE3A81"/>
      <stop offset="1" stop-color="#FFE705"/>
    </linearGradient>
    <linearGradient id="paint1_linear_3358_7527" x1="76.8814" y1="37.0761" x2="6.9424" y2="39.9943" gradientUnits="userSpaceOnUse">
      <stop stop-color="#624BF5"/>
      <stop offset="0.46875" stop-color="#FE3A81"/>
      <stop offset="1" stop-color="#FFE705"/>
    </linearGradient>
    <linearGradient id="paint2_linear_3358_7527" x1="134.443" y1="12.9229" x2="134.443" y2="19.3459" gradientUnits="userSpaceOnUse">
      <stop stop-color="#FF9EBB"/>
      <stop offset="1" stop-color="#FFDB82"/>
    </linearGradient>
    <linearGradient id="paint3_linear_3358_7527" x1="133.865" y1="12.8663" x2="135.837" y2="18.4313" gradientUnits="userSpaceOnUse">
      <stop stop-color="#5D4AF7"/>
      <stop offset="1" stop-color="#FE3A81"/>
    </linearGradient>
    <clipPath id="clip0_3358_7527">
      <rect width="241.577" height="56" fill="white"/>
    </clipPath>
  </defs>
</svg>