<svg xmlns="http://www.w3.org/2000/svg" width="173" height="40" viewBox="0 0 173 40" fill="none">
  <g clip-path="url(#clip0_3383_8620)">
    <path d="M0 33.022H2.25275C2.25275 33.022 5.41209 0.934097 35.4121 2.11542C62.3626 3.15937 61.511 33.2967 61.511 33.2967H63.6813C63.6813 33.2967 64.7802 0.0549766 34.6429 3.15664e-05C2.36264 -0.082386 0 33.022 0 33.022Z" fill="url(#paint0_linear_3383_8620)"/>
    <path d="M4.58789 33.1044H8.18679C8.18679 33.1044 11.0439 8.10445 32.8571 8.24181C52.9121 8.37917 54.3406 33.077 54.3406 33.077H59.3956C59.3956 33.077 58.2143 4.78027 33.8187 4.78027C6.59338 4.78027 4.58789 33.1044 4.58789 33.1044Z" fill="url(#paint1_linear_3383_8620)"/>
    <path d="M14.0815 32.2607C15.7957 32.2607 17.1854 31.7396 17.1854 31.0967C17.1854 30.4539 15.7957 29.9327 14.0815 29.9327C12.3672 29.9327 10.9775 30.4539 10.9775 31.0967C10.9775 31.7396 12.3672 32.2607 14.0815 32.2607Z" fill="black"/>
    <path d="M13.9052 22.7725C13.623 23.3369 14.6459 24.4303 16.1979 25.171C17.7498 25.9117 19.2312 26.0528 19.5134 25.4885C19.7956 24.9241 18.7727 23.8307 17.2207 23.09C15.6688 22.314 14.2226 22.1729 13.9052 22.7725Z" fill="black"/>
    <path d="M24.3777 20.3153C24.8322 19.8608 24.2181 18.5096 23.0059 17.2975C21.7938 16.0853 20.4426 15.4712 19.9881 15.9257C19.5335 16.3803 20.1477 17.7314 21.3598 18.9436C22.572 20.1557 23.9231 20.7699 24.3777 20.3153Z" fill="black"/>
    <path d="M28.86 11.5913C28.2251 11.7324 28.0135 13.1785 28.3662 14.8716C28.7189 16.5646 29.5302 17.7991 30.1298 17.658C30.7647 17.517 30.9763 16.0708 30.6236 14.3778C30.2709 12.72 29.4949 11.4502 28.86 11.5913Z" fill="black"/>
    <path d="M36.7608 11.5561C36.1259 11.3797 35.2441 12.5437 34.7503 14.2015C34.2565 15.8593 34.3623 17.3407 34.962 17.5171C35.5968 17.6934 36.4786 16.5294 36.9724 14.8717C37.5015 13.2139 37.3957 11.7325 36.7608 11.5561Z" fill="black"/>
    <path d="M49.4769 32.8231C51.1893 32.7437 52.5533 32.1588 52.5235 31.5166C52.4937 30.8745 51.0814 30.4183 49.3691 30.4978C47.6567 30.5772 46.2927 31.1622 46.3225 31.8043C46.3523 32.4464 47.7646 32.9026 49.4769 32.8231Z" fill="black"/>
    <path d="M47.9477 25.5773C49.4716 24.7921 50.4684 23.6924 50.174 23.1209C49.8795 22.5494 48.4054 22.7226 46.8815 23.5077C45.3575 24.2928 44.3607 25.3926 44.6552 25.9641C44.9496 26.5356 46.4237 26.3624 47.9477 25.5773Z" fill="black"/>
    <path d="M43.4001 18.8818C44.5012 17.5679 44.9943 16.1679 44.5016 15.755C44.0088 15.3421 42.7168 16.0726 41.6157 17.3866C40.5147 18.7006 40.0215 20.1005 40.5143 20.5134C41.007 20.9263 42.299 20.1958 43.4001 18.8818Z" fill="black"/>
    <path d="M27.0023 27.5918C27.2166 27.2206 26.5288 26.4223 25.466 25.8087C24.4032 25.1951 23.3679 24.9985 23.1536 25.3696C22.9393 25.7408 23.6272 26.5391 24.69 27.1527C25.7528 27.7663 26.7881 27.9629 27.0023 27.5918Z" fill="black"/>
    <path d="M28.1198 21.3617C28.5078 21.1501 29.2837 21.8908 29.8481 22.9842C30.4124 24.0776 30.5535 25.1358 30.1655 25.3122C29.7775 25.5238 29.0016 24.7831 28.4372 23.6896C27.9081 22.5962 27.7318 21.5381 28.1198 21.3617Z" fill="black"/>
    <path d="M21.5239 31.0262C21.6298 30.603 22.6526 30.4619 23.8519 30.7088C25.0511 30.9557 25.9682 31.52 25.8624 31.9433C25.7566 32.3666 24.7337 32.5076 23.5344 32.2607C22.3352 31.9786 21.4181 31.4495 21.5239 31.0262Z" fill="black"/>
    <path d="M39.8566 26.8676C40.9194 26.254 41.6073 25.4556 41.393 25.0845C41.1787 24.7134 40.1434 24.91 39.0806 25.5236C38.0178 26.1372 37.33 26.9355 37.5442 27.3066C37.7585 27.6778 38.7938 27.4812 39.8566 26.8676Z" fill="black"/>
    <path d="M35.9144 21.009C35.5264 20.8326 34.821 21.6439 34.3625 22.7726C33.9039 23.9013 33.8334 24.9594 34.2566 25.1358C34.6446 25.3122 35.3501 24.5009 35.8086 23.3722C36.2319 22.2082 36.3024 21.1501 35.9144 21.009Z" fill="black"/>
    <path d="M43.3214 30.2855C43.2155 29.8622 42.1927 29.7211 40.9934 29.968C39.7942 30.215 38.8771 30.7793 38.9829 31.2026C39.0887 31.6258 40.1116 31.7669 41.3109 31.52C42.5101 31.2378 43.4272 30.7088 43.3214 30.2855Z" fill="black"/>
    <path d="M82.0326 16.3187C84.3403 16.3187 86.2633 17.1429 87.7469 18.8187C89.2304 20.4671 89.9721 22.5275 89.9721 24.9726C89.9721 27.3902 89.2304 29.4506 87.7469 31.0989C86.2633 32.7748 84.3403 33.5989 82.0326 33.5989C79.5051 33.5989 77.5546 32.7198 76.1809 30.9341V39.8352H72.582V16.7583H76.1809V18.9836C77.5546 17.1978 79.5051 16.3187 82.0326 16.3187ZM81.071 19.4781C80.0271 19.4781 79.0655 19.7528 78.1864 20.3022C77.3073 20.8517 76.648 21.566 76.1809 22.4176V27.5C76.648 28.3517 77.3348 29.0385 78.2139 29.588C79.093 30.1374 80.0546 30.4121 81.071 30.4121C82.582 30.4121 83.8458 29.8902 84.8348 28.8462C85.8238 27.7748 86.3458 26.4836 86.3458 24.9726C86.3458 23.4341 85.8513 22.1429 84.8348 21.0989C83.8183 20.0275 82.582 19.4781 81.071 19.4781Z" fill="black"/>
    <path d="M97.8567 33.1594H94.2578V16.7583H97.8567V33.1594Z" fill="black"/>
    <path d="M105 28.6813V19.9176H101.483V16.7582H105V11.978H108.599V16.7582H113.764V19.9451H108.599V27.6648C108.599 28.5714 108.819 29.2582 109.231 29.6703C109.643 30.0824 110.302 30.3022 111.181 30.3022C112.06 30.3022 112.885 30.1099 113.654 29.6978V32.8022C112.885 33.3242 111.648 33.5989 110 33.5989C108.434 33.5989 107.225 33.1868 106.319 32.3352C105.467 31.4835 105 30.2473 105 28.6813Z" fill="black"/>
    <path d="M133.269 30.3572C133.626 30.3572 133.956 30.2748 134.231 30.1099V32.8572C133.736 33.2143 133.049 33.3792 132.115 33.3792C130.247 33.3792 129.093 32.6099 128.681 31.044C127.198 32.7473 125.165 33.5715 122.637 33.5715C120.879 33.5715 119.395 33.077 118.214 32.088C117.06 31.1264 116.483 29.7803 116.483 28.0495C116.483 26.3187 117.115 24.9726 118.379 24.0385C119.615 23.077 121.181 22.6099 123.049 22.6099C125.027 22.6099 126.786 23.022 128.297 23.8737V22.9671C128.297 20.577 126.703 19.3956 123.489 19.3956C121.621 19.3956 119.89 19.8902 118.324 20.8792V17.7198C119.945 16.7858 121.95 16.3187 124.313 16.3187C126.621 16.3187 128.461 16.8682 129.835 17.9671C131.209 19.066 131.895 20.6044 131.895 22.5825V28.7088C131.895 29.2308 132.033 29.6154 132.28 29.9176C132.527 30.1924 132.857 30.3572 133.269 30.3572ZM128.324 28.5165V26.511C126.95 25.7418 125.494 25.3297 123.956 25.3297C122.747 25.3297 121.813 25.5495 121.126 25.9891C120.439 26.4286 120.11 27.0605 120.11 27.8572C120.11 28.7088 120.439 29.3407 121.071 29.8077C121.703 30.2473 122.582 30.4671 123.654 30.4671C124.533 30.4671 125.412 30.2748 126.264 29.9176C127.088 29.5605 127.802 29.0935 128.324 28.5165Z" fill="black"/>
    <path d="M139.12 40.0001C137.774 40.0001 136.757 39.8352 136.153 39.4781V36.2913C136.867 36.6484 137.664 36.8132 138.516 36.8132C139.422 36.8132 140.192 36.4836 140.851 35.8242C141.483 35.1649 142.115 34.066 142.774 32.555L135.576 16.7583H139.587L144.532 28.3242L149.312 16.7583H153.214L145.356 34.9176C143.9 38.2968 141.812 40.0001 139.12 40.0001Z" fill="black"/>
    <path d="M171.593 30.3572C171.95 30.3572 172.28 30.2748 172.555 30.1099V32.8572C172.06 33.2143 171.374 33.3792 170.439 33.3792C168.571 33.3792 167.418 32.6099 167.005 31.044C165.522 32.7473 163.489 33.5715 160.961 33.5715C159.203 33.5715 157.72 33.077 156.538 32.088C155.385 31.1264 154.808 29.7803 154.808 28.0495C154.808 26.3187 155.439 24.9726 156.703 24.0385C157.939 23.077 159.505 22.6099 161.374 22.6099C163.352 22.6099 165.11 23.022 166.621 23.8737V22.9671C166.621 20.577 165.027 19.3956 161.813 19.3956C159.945 19.3956 158.214 19.8902 156.648 20.8792V17.7198C158.269 16.7858 160.275 16.3187 162.637 16.3187C164.945 16.3187 166.786 16.8682 168.159 17.9671C169.533 19.066 170.22 20.6044 170.22 22.5825V28.7088C170.22 29.2308 170.357 29.6154 170.604 29.9176C170.852 30.1924 171.181 30.3572 171.593 30.3572ZM166.648 28.5165V26.511C165.275 25.7418 163.819 25.3297 162.28 25.3297C161.071 25.3297 160.137 25.5495 159.45 25.9891C158.764 26.4286 158.434 27.0605 158.434 27.8572C158.434 28.7088 158.764 29.3407 159.396 29.8077C160.027 30.2473 160.907 30.4671 161.978 30.4671C162.857 30.4671 163.736 30.2748 164.588 29.9176C165.412 29.5605 166.099 29.0935 166.648 28.5165Z" fill="black"/>
    <path d="M96.0439 13.8186C95.3846 13.8186 94.8626 13.5988 94.423 13.1593C93.9835 12.7197 93.7637 12.1977 93.7637 11.5384C93.7637 10.8791 93.9835 10.3571 94.423 9.89005C94.8626 9.45049 95.3846 9.23071 96.0439 9.23071C96.6758 9.23071 97.1977 9.45049 97.6373 9.89005C98.0769 10.3296 98.2966 10.8791 98.2966 11.5384C98.2966 12.1977 98.0769 12.7197 97.6373 13.1593C97.1977 13.5988 96.6758 13.8186 96.0439 13.8186Z" fill="url(#paint2_linear_3383_8620)"/>
    <path d="M99.7252 10.3021C99.7252 8.25482 98.0554 6.59338 96.0111 6.59338C93.9667 6.59338 92.3076 8.25482 92.3076 10.3021C92.3076 12.3495 93.9667 14.0109 96.0111 14.0109C98.0554 14.0216 99.7252 12.3602 99.7252 10.3021Z" fill="url(#paint3_linear_3383_8620)"/>
  </g>
  <defs>
    <linearGradient id="paint0_linear_3383_8620" x1="58.4804" y1="25.5127" x2="0.428911" y2="27.9069" gradientUnits="userSpaceOnUse">
      <stop stop-color="#624BF5"/>
      <stop offset="0.46875" stop-color="#FE3A81"/>
      <stop offset="1" stop-color="#FFE705"/>
    </linearGradient>
    <linearGradient id="paint1_linear_3383_8620" x1="54.9154" y1="26.4829" x2="4.959" y2="28.5673" gradientUnits="userSpaceOnUse">
      <stop stop-color="#624BF5"/>
      <stop offset="0.46875" stop-color="#FE3A81"/>
      <stop offset="1" stop-color="#FFE705"/>
    </linearGradient>
    <linearGradient id="paint2_linear_3383_8620" x1="96.0302" y1="9.23071" x2="96.0302" y2="13.8186" gradientUnits="userSpaceOnUse">
      <stop stop-color="#FF9EBB"/>
      <stop offset="1" stop-color="#FFDB82"/>
    </linearGradient>
    <linearGradient id="paint3_linear_3383_8620" x1="95.6178" y1="9.19039" x2="97.0264" y2="13.1654" gradientUnits="userSpaceOnUse">
      <stop stop-color="#5D4AF7"/>
      <stop offset="1" stop-color="#FE3A81"/>
    </linearGradient>
    <clipPath id="clip0_3383_8620">
      <rect width="173" height="40" fill="white"/>
    </clipPath>
  </defs>
</svg>