<svg xmlns="http://www.w3.org/2000/svg" width="32" height="32" viewBox="0 0 32 32" fill="none">
  <path d="M10.4003 2.66663H21.6003C25.867 2.66663 29.3337 6.13329 29.3337 10.4V21.6C29.3337 23.651 28.5189 25.618 27.0686 27.0683C25.6183 28.5185 23.6513 29.3333 21.6003 29.3333H10.4003C6.13366 29.3333 2.66699 25.8666 2.66699 21.6V10.4C2.66699 8.34895 3.48175 6.38195 4.93203 4.93167C6.38231 3.48139 8.34932 2.66663 10.4003 2.66663ZM10.1337 5.33329C8.86062 5.33329 7.63972 5.83901 6.73955 6.73918C5.83937 7.63935 5.33366 8.86025 5.33366 10.1333V21.8666C5.33366 24.52 7.48033 26.6666 10.1337 26.6666H21.867C23.14 26.6666 24.3609 26.1609 25.2611 25.2607C26.1613 24.3606 26.667 23.1397 26.667 21.8666V10.1333C26.667 7.47996 24.5203 5.33329 21.867 5.33329H10.1337ZM23.0003 7.33329C23.4424 7.33329 23.8663 7.50889 24.1788 7.82145C24.4914 8.13401 24.667 8.55793 24.667 8.99996C24.667 9.44199 24.4914 9.86591 24.1788 10.1785C23.8663 10.491 23.4424 10.6666 23.0003 10.6666C22.5583 10.6666 22.1344 10.491 21.8218 10.1785C21.5093 9.86591 21.3337 9.44199 21.3337 8.99996C21.3337 8.55793 21.5093 8.13401 21.8218 7.82145C22.1344 7.50889 22.5583 7.33329 23.0003 7.33329ZM16.0003 9.33329C17.7684 9.33329 19.4641 10.0357 20.7144 11.2859C21.9646 12.5362 22.667 14.2318 22.667 16C22.667 17.7681 21.9646 19.4638 20.7144 20.714C19.4641 21.9642 17.7684 22.6666 16.0003 22.6666C14.2322 22.6666 12.5365 21.9642 11.2863 20.714C10.036 19.4638 9.33366 17.7681 9.33366 16C9.33366 14.2318 10.036 12.5362 11.2863 11.2859C12.5365 10.0357 14.2322 9.33329 16.0003 9.33329ZM16.0003 12C14.9395 12 13.922 12.4214 13.1719 13.1715C12.4218 13.9217 12.0003 14.9391 12.0003 16C12.0003 17.0608 12.4218 18.0782 13.1719 18.8284C13.922 19.5785 14.9395 20 16.0003 20C17.0612 20 18.0786 19.5785 18.8288 18.8284C19.5789 18.0782 20.0003 17.0608 20.0003 16C20.0003 14.9391 19.5789 13.9217 18.8288 13.1715C18.0786 12.4214 17.0612 12 16.0003 12Z" fill="url(#paint0_linear_3384_8660)"/>
  <defs>
    <linearGradient id="paint0_linear_3384_8660" x1="0.389213" y1="38.9885" x2="41.8138" y2="-1.94347" gradientUnits="userSpaceOnUse">
      <stop stop-color="#624BF5"/>
      <stop offset="0.905074" stop-color="#FE3A81"/>
    </linearGradient>
  </defs>
</svg>
