<svg xmlns="http://www.w3.org/2000/svg" width="32" height="32" viewBox="0 0 32 32" fill="none">
  <path d="M14.2387 12.76C10.3127 12.5707 7.58405 13.97 6.05205 16.9587C3.75472 21.442 5.65338 28.778 13.3187 28.778C20.9854 28.778 21.2067 21.37 21.2067 20.594V11.9167C22.8467 12.9547 24.2287 13.58 25.3534 13.792C26.4794 14.0034 27.1941 14.0974 27.5001 14.0734V9.75605C26.4594 9.63071 25.5594 9.39138 24.8001 9.03871C23.6607 8.50938 21.4027 7.04071 21.4027 4.88805C21.4041 4.89871 21.4041 4.34338 21.4027 3.22205H16.6574C16.6434 13.766 16.6434 19.5567 16.6574 20.594C16.6781 22.15 15.4707 24.3274 13.0241 24.3274C10.5761 24.3274 9.36872 22.152 9.36872 20.7494C9.36872 19.8907 9.66405 18.646 10.8834 17.724C11.6067 17.1774 12.6101 16.9587 14.2387 16.9587V12.76Z" stroke="url(#paint0_linear_3384_8662)" stroke-width="1.9165" stroke-linejoin="round"/>
  <defs>
    <linearGradient id="paint0_linear_3384_8662" x1="3.22864" y1="38.0311" x2="42.5142" y2="4.06525" gradientUnits="userSpaceOnUse">
      <stop stop-color="#624BF5"/>
      <stop offset="0.905074" stop-color="#FE3A81"/>
    </linearGradient>
  </defs>
</svg>
