<svg xmlns="http://www.w3.org/2000/svg" width="45" height="40" viewBox="0 0 45 40" fill="none">
  <g clip-path="url(#clip0_3406_8949)">
    <path d="M12.5 0C11.1172 0 10 1.11719 10 2.5C10 3.88281 11.1172 5 12.5 5H16.4609L0.734375 20.7344C-0.242188 21.7109 -0.242188 23.2969 0.734375 24.2734C1.71094 25.25 3.29688 25.25 4.27344 24.2734L20 8.53906V12.5C20 13.8828 21.1172 15 22.5 15C23.8828 15 25 13.8828 25 12.5V2.5C25 1.11719 23.8828 0 22.5 0H12.5ZM45 6.25C45 5.25544 44.6049 4.30161 43.9016 3.59835C43.1984 2.89509 42.2446 2.5 41.25 2.5C40.2554 2.5 39.3016 2.89509 38.5984 3.59835C37.8951 4.30161 37.5 5.25544 37.5 6.25C37.5 7.24456 37.8951 8.19839 38.5984 8.90165C39.3016 9.60491 40.2554 10 41.25 10C42.2446 10 43.1984 9.60491 43.9016 8.90165C44.6049 8.19839 45 7.24456 45 6.25ZM35 16.25C35 15.7575 34.903 15.2699 34.7146 14.8149C34.5261 14.36 34.2499 13.9466 33.9016 13.5983C33.5534 13.2501 33.14 12.9739 32.6851 12.7855C32.2301 12.597 31.7425 12.5 31.25 12.5C30.7575 12.5 30.2699 12.597 29.8149 12.7855C29.36 12.9739 28.9466 13.2501 28.5984 13.5983C28.2501 13.9466 27.9739 14.36 27.7855 14.8149C27.597 15.2699 27.5 15.7575 27.5 16.25C27.5 16.7425 27.597 17.2301 27.7855 17.6851C27.9739 18.14 28.2501 18.5534 28.5984 18.9017C28.9466 19.2499 29.36 19.5261 29.8149 19.7145C30.2699 19.903 30.7575 20 31.25 20C31.7425 20 32.2301 19.903 32.6851 19.7145C33.14 19.5261 33.5534 19.2499 33.9016 18.9017C34.2499 18.5534 34.5261 18.14 34.7146 17.6851C34.903 17.2301 35 16.7425 35 16.25ZM31.25 30C32.2446 30 33.1984 29.6049 33.9016 28.9017C34.6049 28.1984 35 27.2446 35 26.25C35 25.2554 34.6049 24.3016 33.9016 23.5983C33.1984 22.8951 32.2446 22.5 31.25 22.5C30.2554 22.5 29.3016 22.8951 28.5984 23.5983C27.8951 24.3016 27.5 25.2554 27.5 26.25C27.5 27.2446 27.8951 28.1984 28.5984 28.9017C29.3016 29.6049 30.2554 30 31.25 30ZM35 36.25C35 35.7575 34.903 35.2699 34.7146 34.8149C34.5261 34.36 34.2499 33.9466 33.9016 33.5984C33.5534 33.2501 33.14 32.9739 32.6851 32.7854C32.2301 32.597 31.7425 32.5 31.25 32.5C30.7575 32.5 30.2699 32.597 29.8149 32.7854C29.36 32.9739 28.9466 33.2501 28.5984 33.5984C28.2501 33.9466 27.9739 34.36 27.7855 34.8149C27.597 35.2699 27.5 35.7575 27.5 36.25C27.5 36.7425 27.597 37.2301 27.7855 37.6851C27.9739 38.14 28.2501 38.5534 28.5984 38.9016C28.9466 39.2499 29.36 39.5261 29.8149 39.7146C30.2699 39.903 30.7575 40 31.25 40C31.7425 40 32.2301 39.903 32.6851 39.7146C33.14 39.5261 33.5534 39.2499 33.9016 38.9016C34.2499 38.5534 34.5261 38.14 34.7146 37.6851C34.903 37.2301 35 36.7425 35 36.25ZM45 36.25C45 35.2554 44.6049 34.3016 43.9016 33.5984C43.1984 32.8951 42.2446 32.5 41.25 32.5C40.2554 32.5 39.3016 32.8951 38.5984 33.5984C37.8951 34.3016 37.5 35.2554 37.5 36.25C37.5 37.2446 37.8951 38.1984 38.5984 38.9016C39.3016 39.6049 40.2554 40 41.25 40C42.2446 40 43.1984 39.6049 43.9016 38.9016C44.6049 38.1984 45 37.2446 45 36.25ZM21.25 30C22.2446 30 23.1984 29.6049 23.9017 28.9017C24.6049 28.1984 25 27.2446 25 26.25C25 25.2554 24.6049 24.3016 23.9017 23.5983C23.1984 22.8951 22.2446 22.5 21.25 22.5C20.2554 22.5 19.3016 22.8951 18.5984 23.5983C17.8951 24.3016 17.5 25.2554 17.5 26.25C17.5 27.2446 17.8951 28.1984 18.5984 28.9017C19.3016 29.6049 20.2554 30 21.25 30ZM25 36.25C25 35.2554 24.6049 34.3016 23.9017 33.5984C23.1984 32.8951 22.2446 32.5 21.25 32.5C20.2554 32.5 19.3016 32.8951 18.5984 33.5984C17.8951 34.3016 17.5 35.2554 17.5 36.25C17.5 37.2446 17.8951 38.1984 18.5984 38.9016C19.3016 39.6049 20.2554 40 21.25 40C22.2446 40 23.1984 39.6049 23.9017 38.9016C24.6049 38.1984 25 37.2446 25 36.25ZM11.25 40C12.2446 40 13.1984 39.6049 13.9017 38.9016C14.6049 38.1984 15 37.2446 15 36.25C15 35.2554 14.6049 34.3016 13.9017 33.5984C13.1984 32.8951 12.2446 32.5 11.25 32.5C10.2554 32.5 9.30161 32.8951 8.59835 33.5984C7.89509 34.3016 7.5 35.2554 7.5 36.25C7.5 37.2446 7.89509 38.1984 8.59835 38.9016C9.30161 39.6049 10.2554 40 11.25 40ZM45 26.25C45 25.2554 44.6049 24.3016 43.9016 23.5983C43.1984 22.8951 42.2446 22.5 41.25 22.5C40.2554 22.5 39.3016 22.8951 38.5984 23.5983C37.8951 24.3016 37.5 25.2554 37.5 26.25C37.5 27.2446 37.8951 28.1984 38.5984 28.9017C39.3016 29.6049 40.2554 30 41.25 30C42.2446 30 43.1984 29.6049 43.9016 28.9017C44.6049 28.1984 45 27.2446 45 26.25ZM41.25 20C42.2446 20 43.1984 19.6049 43.9016 18.9017C44.6049 18.1984 45 17.2446 45 16.25C45 15.2554 44.6049 14.3016 43.9016 13.5983C43.1984 12.8951 42.2446 12.5 41.25 12.5C40.2554 12.5 39.3016 12.8951 38.5984 13.5983C37.8951 14.3016 37.5 15.2554 37.5 16.25C37.5 17.2446 37.8951 18.1984 38.5984 18.9017C39.3016 19.6049 40.2554 20 41.25 20Z" fill="#AF60FF"/>
  </g>
  <defs>
    <clipPath id="clip0_3406_8949">
      <rect width="45" height="40" fill="white"/>
    </clipPath>
  </defs>
</svg>