<svg xmlns="http://www.w3.org/2000/svg" width="30" height="40" viewBox="0 0 30 40" fill="none">
  <rect width="30" height="40" rx="8" fill="#624BF5" fill-opacity="0.1"/>
  <path d="M6.25 0C3.49219 0 1.25 2.24219 1.25 5V35C1.25 37.7578 3.49219 40 6.25 40H23.75C26.5078 40 28.75 37.7578 28.75 35V5C28.75 2.24219 26.5078 0 23.75 0H6.25ZM15 31.25C15.663 31.25 16.2989 31.5134 16.7678 31.9822C17.2366 32.4511 17.5 33.087 17.5 33.75C17.5 34.413 17.2366 35.0489 16.7678 35.5178C16.2989 35.9866 15.663 36.25 15 36.25C14.337 36.25 13.7011 35.9866 13.2322 35.5178C12.7634 35.0489 12.5 34.413 12.5 33.75C12.5 33.087 12.7634 32.4511 13.2322 31.9822C13.7011 31.5134 14.337 31.25 15 31.25Z" fill="#AF60FF"/>
</svg>