<svg xmlns="http://www.w3.org/2000/svg" width="30" height="24" viewBox="0 0 30 24" fill="none">
  <path d="M3.375 4.125C3.375 3.42881 3.65156 2.76113 4.14385 2.26884C4.63613 1.77656 5.30381 1.5 6 1.5C6.69619 1.5 7.36387 1.77656 7.85616 2.26884C8.34844 2.76113 8.625 3.42881 8.625 4.125C8.625 4.82119 8.34844 5.48887 7.85616 5.98115C7.36387 6.47344 6.69619 6.75 6 6.75C5.30381 6.75 4.63613 6.47344 4.14385 5.98115C3.65156 5.48887 3.375 4.82119 3.375 4.125ZM3 11.5172C2.53125 12.0422 2.25 12.7406 2.25 13.5C2.25 14.2594 2.53125 14.9578 3 15.4828V11.5172ZM9.76875 9.20625C8.37656 10.4391 7.5 12.2438 7.5 14.25C7.5 15.8578 8.0625 17.3344 9 18.4922V19.5C9 20.3297 8.32969 21 7.5 21H4.5C3.67031 21 3 20.3297 3 19.5V18.2437C1.22813 17.4 0 15.5953 0 13.5C0 10.5984 2.34844 8.25 5.25 8.25H6.75C7.875 8.25 8.91562 8.60156 9.76875 9.20156V9.20625ZM21 19.5V18.4922C21.9375 17.3344 22.5 15.8578 22.5 14.25C22.5 12.2438 21.6234 10.4391 20.2313 9.20156C21.0844 8.60156 22.125 8.25 23.25 8.25H24.75C27.6516 8.25 30 10.5984 30 13.5C30 15.5953 28.7719 17.4 27 18.2437V19.5C27 20.3297 26.3297 21 25.5 21H22.5C21.6703 21 21 20.3297 21 19.5ZM21.375 4.125C21.375 3.42881 21.6516 2.76113 22.1438 2.26884C22.6361 1.77656 23.3038 1.5 24 1.5C24.6962 1.5 25.3639 1.77656 25.8562 2.26884C26.3484 2.76113 26.625 3.42881 26.625 4.125C26.625 4.82119 26.3484 5.48887 25.8562 5.98115C25.3639 6.47344 24.6962 6.75 24 6.75C23.3038 6.75 22.6361 6.47344 22.1438 5.98115C21.6516 5.48887 21.375 4.82119 21.375 4.125ZM27 11.5172V15.4875C27.4688 14.9578 27.75 14.2641 27.75 13.5047C27.75 12.7453 27.4688 12.0469 27 11.5219V11.5172ZM15 1.5C15.7956 1.5 16.5587 1.81607 17.1213 2.37868C17.6839 2.94129 18 3.70435 18 4.5C18 5.29565 17.6839 6.05871 17.1213 6.62132C16.5587 7.18393 15.7956 7.5 15 7.5C14.2044 7.5 13.4413 7.18393 12.8787 6.62132C12.3161 6.05871 12 5.29565 12 4.5C12 3.70435 12.3161 2.94129 12.8787 2.37868C13.4413 1.81607 14.2044 1.5 15 1.5ZM11.25 14.25C11.25 15.0094 11.5312 15.7031 12 16.2328V12.2672C11.5312 12.7969 11.25 13.4906 11.25 14.25ZM18 12.2672V16.2375C18.4688 15.7078 18.75 15.0141 18.75 14.2547C18.75 13.4953 18.4688 12.7969 18 12.2719V12.2672ZM21 14.25C21 16.3453 19.7719 18.15 18 18.9937V21C18 21.8297 17.3297 22.5 16.5 22.5H13.5C12.6703 22.5 12 21.8297 12 21V18.9937C10.2281 18.15 9 16.3453 9 14.25C9 11.3484 11.3484 9 14.25 9H15.75C18.6516 9 21 11.3484 21 14.25Z" fill="url(#paint0_linear_3438_29386)"/>
  <defs>
    <linearGradient id="paint0_linear_3438_29386" x1="29.9617" y1="-3.65794" x2="4.759" y2="33.9196" gradientUnits="userSpaceOnUse">
      <stop stop-color="#9F06FE"/>
      <stop offset="0.889234" stop-color="#FE3A81"/>
    </linearGradient>
  </defs>
</svg>
