<svg xmlns="http://www.w3.org/2000/svg" width="21" height="24" viewBox="0 0 21 24" fill="none">
  <g clip-path="url(#clip0_3438_29380)">
    <path d="M10.2798 0.023291C10.4251 -0.00483398 10.5751 -0.00483398 10.7204 0.023291L20.0954 1.89829C20.6204 2.00142 21.0001 2.46548 21.0001 2.99985C21.0001 3.53423 20.6204 3.99829 20.0954 4.10142L16.5001 4.82329V7.49985C16.5001 10.8139 13.8142 13.4999 10.5001 13.4999C7.18607 13.4999 4.50013 10.8139 4.50013 7.49985V4.82329L2.25013 4.37329V7.42485L2.98607 11.0999C3.02826 11.3202 2.97201 11.5499 2.83138 11.7233C2.69076 11.8967 2.47513 11.9999 2.25013 11.9999H0.750134C0.525134 11.9999 0.314196 11.9014 0.168884 11.7233C0.023571 11.5452 -0.032679 11.3202 0.014196 11.0999L0.750134 7.42485V4.05923C0.304821 3.90454 0.000133533 3.48267 0.000133533 2.99985C0.000133533 2.46548 0.379821 2.00142 0.904821 1.89829L10.2798 0.023291ZM5.24545 15.3608C5.73763 15.2014 6.26732 15.3795 6.62357 15.7592L9.9517 19.2983C10.247 19.6124 10.7486 19.6124 11.0439 19.2983L14.372 15.7592C14.7283 15.3795 15.2579 15.2014 15.7501 15.3608C18.797 16.3405 21.0001 19.1905 21.0001 22.5608C21.0001 23.3577 20.3533 23.9999 19.5611 23.9999H1.4392C0.647009 23.9999 0.000133533 23.353 0.000133533 22.5608C0.000133533 19.1905 2.20326 16.3405 5.24545 15.3608Z" fill="url(#paint0_linear_3438_29380)"/>
  </g>
  <defs>
    <linearGradient id="paint0_linear_3438_29380" x1="20.9733" y1="-5.89201" x2="-10.0282" y2="22.4255" gradientUnits="userSpaceOnUse">
      <stop stop-color="#9F06FE"/>
      <stop offset="0.889234" stop-color="#FE3A81"/>
    </linearGradient>
    <clipPath id="clip0_3438_29380">
      <rect width="21" height="24" fill="white"/>
    </clipPath>
  </defs>
</svg>
